<svg width="32" height="32" viewBox="0 0 32 32" fill="none" xmlns="http://www.w3.org/2000/svg">
<path d="M6.71211 12.1562C5.45106 12.4736 4.34928 13.2405 3.61378 14.3128C2.87828 15.3852 2.55969 16.6893 2.71785 17.98C2.87602 19.2707 3.50006 20.4592 4.47273 21.3223C5.4454 22.1853 6.69975 22.6635 8.00011 22.6669H9.33344M16.0001 29.3336V17.3336V29.3336ZM16.0001 29.3336L12.6668 26.6669L16.0001 29.3336ZM16.0001 29.3336L19.3334 26.6669L16.0001 29.3336Z" stroke="white" stroke-width="2" stroke-linecap="round" stroke-linejoin="round"/>
<path d="M21.1066 9.51826C20.6508 7.71369 19.526 6.14991 17.9601 5.14394C16.3941 4.13796 14.5043 3.76505 12.6736 4.1008C10.8429 4.43655 9.20834 5.45584 8.1013 6.95204C6.99427 8.44825 6.49757 10.3094 6.71189 12.1583C6.71189 12.1583 6.91589 13.3343 7.33322 14.0009" stroke="white" stroke-width="2" stroke-linecap="round" stroke-linejoin="round"/>
<path d="M22.6668 22.6673C23.6082 22.6667 24.5388 22.4667 25.3973 22.0805C26.2558 21.6943 27.0228 21.1306 27.6478 20.4266C28.2728 19.7226 28.7416 18.8943 29.0233 17.996C29.3051 17.0978 29.3934 16.1501 29.2825 15.2152C29.1716 14.2804 28.864 13.3797 28.3799 12.5723C27.8958 11.7649 27.2462 11.0692 26.4738 10.531C25.7015 9.99281 24.8239 9.62427 23.8988 9.44966C22.9738 9.27506 22.0222 9.29834 21.1068 9.51798L19.3335 10.0006" stroke="white" stroke-width="2" stroke-linecap="round" stroke-linejoin="round"/>
</svg>
