<svg width="32" height="32" viewBox="0 0 32 32" fill="none" xmlns="http://www.w3.org/2000/svg">
<g clip-path="url(#clip0_817_4)">
<path d="M20.4123 16.25C20.3878 16.5477 20.277 16.8319 20.0936 17.0677C19.9102 17.3035 19.662 17.4808 19.3795 17.5779C19.0969 17.6749 18.7922 17.6875 18.5026 17.6142C18.213 17.5409 17.951 17.3848 17.7487 17.1649C17.5464 16.9451 17.4125 16.6711 17.3634 16.3764C17.3143 16.0817 17.3521 15.7791 17.4722 15.5056C17.5923 15.232 17.7895 14.9994 18.0397 14.8361C18.2899 14.6729 18.5823 14.586 18.881 14.5863C19.7348 14.6225 20.4123 15.3237 20.4123 16.1825L20.411 16.2525V16.2488L20.4123 16.25ZM13.4073 14.5875C12.9929 14.6261 12.6078 14.8178 12.3272 15.1252C12.0466 15.4325 11.8906 15.8335 11.8898 16.2497C11.8891 16.6658 12.0435 17.0674 12.3229 17.3758C12.6024 17.6842 12.9868 17.8774 13.401 17.9175H13.4073C13.8192 17.9004 14.2085 17.7247 14.4939 17.4273C14.7792 17.1298 14.9386 16.7335 14.9385 16.3212L14.9373 16.2513V16.255L14.9398 16.1712C14.9398 15.315 14.2635 14.6175 13.416 14.585H13.4135L13.4073 14.5875ZM29.2498 5.09V32C25.471 28.66 26.6785 29.7663 22.2898 25.685L23.0848 28.46H6.07353C5.25741 28.4577 4.47548 28.1319 3.89909 27.5541C3.3227 26.9764 2.99886 26.1936 2.99854 25.3775V5.0825C2.99853 4.26648 3.32209 3.48376 3.89828 2.90593C4.47447 2.3281 5.25627 2.00232 6.07228 2H26.1735C26.9897 2.00232 27.7716 2.32806 28.348 2.90585C28.9244 3.48365 29.2482 4.26637 29.2485 5.0825V5.09H29.2498ZM24.9748 19.31C24.9299 16.2264 24.1726 13.195 22.7623 10.4525L22.8148 10.565C21.6134 9.61649 20.1461 9.06636 18.6173 8.99125L18.5998 8.99L18.3898 9.23C19.8273 9.62 21.0773 10.2762 22.1423 11.1487L22.1248 11.135C20.2687 10.1262 18.1885 9.60093 16.076 9.6075C14.2098 9.6075 12.4373 10.0088 10.8398 10.73L10.9198 10.6975C10.3648 10.9525 10.0348 11.135 10.0348 11.135C11.169 10.2105 12.4915 9.54501 13.9098 9.185L13.9798 9.17L13.8298 8.99C12.2888 9.06424 10.8096 9.61892 9.59978 10.5763L9.61478 10.565C8.29978 13.11 7.50728 16.1112 7.45478 19.2925V19.31C7.97294 20.0368 8.66198 20.625 9.46114 21.0226C10.2603 21.4202 11.145 21.6151 12.0373 21.59H12.0298C12.0298 21.59 12.5848 20.915 13.0348 20.345C11.986 20.0787 11.0616 19.4577 10.4185 18.5875L10.4098 18.575C10.6298 18.73 10.9948 18.93 11.0223 18.95C12.6261 19.831 14.4275 20.2899 16.2573 20.2837C17.6987 20.2855 19.1262 20.0017 20.4573 19.4487L20.3848 19.475C21.0448 19.2225 21.6123 18.925 22.1398 18.5712L22.1085 18.5912C21.4492 19.4778 20.5015 20.1068 19.4285 20.37L19.396 20.3763C19.846 20.9463 20.386 21.5913 20.386 21.5913L20.5248 21.5925C21.3914 21.5933 22.2459 21.3883 23.0178 20.9943C23.7897 20.6003 24.457 20.0286 24.9648 19.3263L24.976 19.31H24.9748Z" fill="white"/>
</g>
<defs>
<clipPath id="clip0_817_4">
<rect width="26.25" height="30" fill="white" transform="translate(3 2)"/>
</clipPath>
</defs>
</svg>
