<svg width="30" height="30" viewBox="0 0 30 30" fill="none" xmlns="http://www.w3.org/2000/svg">
<path d="M15.1316 1.02428C16.7008 1 18.261 1.01439 19.8195 1C19.9139 2.83538 20.5739 4.70493 21.9174 6.00255C23.2582 7.33255 25.1547 7.94135 27 8.14728V12.9754C25.2707 12.9187 23.5334 12.559 21.9642 11.8144C21.2807 11.5051 20.6441 11.1067 20.0209 10.6994C20.0128 14.2029 20.0353 17.7019 19.9984 21.191C19.9049 22.8672 19.3518 24.5353 18.377 25.9165C16.8087 28.2159 14.0867 29.715 11.2909 29.7618C9.57604 29.8598 7.86296 29.3922 6.40167 28.5307C3.97998 27.1027 2.27589 24.4885 2.0277 21.6829C1.99644 21.0887 1.99163 20.4934 2.01331 19.8987C2.22913 17.6173 3.3577 15.4348 5.10944 13.9502C7.095 12.2209 9.87639 11.3972 12.4806 11.8846C12.5049 13.6606 12.4339 15.4348 12.4339 17.2109C11.2442 16.826 9.85391 16.9339 8.81437 17.656C8.05382 18.157 7.47907 18.8942 7.17863 19.754C6.93043 20.3619 7.00148 21.0372 7.01586 21.6829C7.30093 23.6504 9.19296 25.3042 11.2127 25.1252C12.5517 25.1108 13.8349 24.3339 14.5327 23.1963C14.7584 22.7979 15.0111 22.3906 15.0246 21.9221C15.1424 19.7773 15.0957 17.6416 15.1101 15.4969C15.1199 10.6634 15.0957 5.84339 15.1325 1.02518L15.1316 1.02428Z" fill="white"/>
</svg>
